<svg xmlns="http://www.w3.org/2000/svg" width="1200" height="630"
     viewBox="0 0 1200 630">
  <rect width="1200" height="630" fill="#f3efe8"/>
  <rect x="770" y="120" width="190" height="250" fill="none" stroke="#0a7d45" stroke-width="3" transform="rotate(-4 865.0 245.0)"/>
  <rect x="930" y="250" width="150" height="200" fill="none" stroke="#1f3ae0" stroke-width="3" transform="rotate(3 1005.0 350.0)"/>
  <rect x="700" y="330" width="160" height="130" fill="none" stroke="#7526bb" stroke-width="3" transform="rotate(6 780.0 395.0)"/>
  <g font-family="Futura, 'Avenir Next', 'Century Gothic', sans-serif" fill="#140f10">
    <text x="80" y="196" font-size="86" letter-spacing="-1">MIXED</text>
    <text x="80" y="286" font-size="86" letter-spacing="-1" fill="#0a7d45">REALITIES</text>
    <text x="80" y="376" font-size="86" letter-spacing="-1">DIGITALITIES</text>
  </g>
  <g font-family="Helvetica Neue, Helvetica, Arial, sans-serif" fill="#4f4448">
    <text x="80" y="440" font-size="30" letter-spacing="4" font-weight="300">LAB</text>
    <text x="80" y="492" font-size="23" letter-spacing="3">MEDIENKUNST &#183; HFG KARLSRUHE</text>
  </g>
  <rect x="80" y="534" width="0" height="0" fill="none"/>
  <rect x="0.0" y="534" width="312.0" height="96" fill="#0a7d45"/>
  <rect x="312.0" y="534" width="216.0" height="96" fill="#1f3ae0"/>
  <rect x="528.0" y="534" width="264.0" height="96" fill="#7526bb"/>
  <rect x="792.0" y="534" width="168.0" height="96" fill="#d40f68"/>
  <rect x="960.0" y="534" width="240.0" height="96" fill="#b4560a"/>
  <rect x="0" y="526" width="1200" height="8" fill="#c8ff2e"/>
</svg>